<mxfile host="app.diagrams.net" modified="2020-07-29T02:29:48.552Z" agent="5.0 (Macintosh; Intel Mac OS X 10_15_5) AppleWebKit/537.36 (KHTML, like Gecko) Chrome/84.0.4147.89 Safari/537.36" etag="pldcssnpUwFr6vut0ziy" version="13.5.4" type="github">
  <diagram id="zdbUkcseA9FGFkvUiTzm" name="Page-1">
    <mxGraphModel dx="746" dy="971" grid="1" gridSize="10" guides="1" tooltips="1" connect="1" arrows="1" fold="1" page="1" pageScale="1" pageWidth="827" pageHeight="1169" math="0" shadow="0">
      <root>
        <mxCell id="0" />
        <mxCell id="1" parent="0" />
        <mxCell id="i4WKR2zMAyOPkdTVrXTG-1" value="" style="shape=table;html=1;whiteSpace=wrap;startSize=0;container=1;collapsible=0;childLayout=tableLayout;" vertex="1" parent="1">
          <mxGeometry x="190" y="220" width="340" height="200" as="geometry" />
        </mxCell>
        <mxCell id="i4WKR2zMAyOPkdTVrXTG-2" value="" style="shape=partialRectangle;html=1;whiteSpace=wrap;collapsible=0;dropTarget=0;pointerEvents=0;fillColor=none;top=0;left=0;bottom=0;right=0;points=[[0,0.5],[1,0.5]];portConstraint=eastwest;" vertex="1" parent="i4WKR2zMAyOPkdTVrXTG-1">
          <mxGeometry width="340" height="40" as="geometry" />
        </mxCell>
        <mxCell id="i4WKR2zMAyOPkdTVrXTG-3" value="Process" style="shape=partialRectangle;html=1;whiteSpace=wrap;connectable=0;overflow=hidden;fillColor=none;top=0;left=0;bottom=0;right=0;" vertex="1" parent="i4WKR2zMAyOPkdTVrXTG-2">
          <mxGeometry width="113" height="40" as="geometry" />
        </mxCell>
        <mxCell id="i4WKR2zMAyOPkdTVrXTG-4" value="Arrival Time" style="shape=partialRectangle;html=1;whiteSpace=wrap;connectable=0;overflow=hidden;fillColor=none;top=0;left=0;bottom=0;right=0;" vertex="1" parent="i4WKR2zMAyOPkdTVrXTG-2">
          <mxGeometry x="113" width="114" height="40" as="geometry" />
        </mxCell>
        <mxCell id="i4WKR2zMAyOPkdTVrXTG-5" value="Burst&lt;br&gt;Time" style="shape=partialRectangle;html=1;whiteSpace=wrap;connectable=0;overflow=hidden;fillColor=none;top=0;left=0;bottom=0;right=0;" vertex="1" parent="i4WKR2zMAyOPkdTVrXTG-2">
          <mxGeometry x="227" width="113" height="40" as="geometry" />
        </mxCell>
        <mxCell id="i4WKR2zMAyOPkdTVrXTG-6" value="" style="shape=partialRectangle;html=1;whiteSpace=wrap;collapsible=0;dropTarget=0;pointerEvents=0;fillColor=none;top=0;left=0;bottom=0;right=0;points=[[0,0.5],[1,0.5]];portConstraint=eastwest;" vertex="1" parent="i4WKR2zMAyOPkdTVrXTG-1">
          <mxGeometry y="40" width="340" height="40" as="geometry" />
        </mxCell>
        <mxCell id="i4WKR2zMAyOPkdTVrXTG-7" value="P1" style="shape=partialRectangle;html=1;whiteSpace=wrap;connectable=0;overflow=hidden;fillColor=#fff2cc;top=0;left=0;bottom=0;right=0;strokeColor=#d6b656;" vertex="1" parent="i4WKR2zMAyOPkdTVrXTG-6">
          <mxGeometry width="113" height="40" as="geometry" />
        </mxCell>
        <mxCell id="i4WKR2zMAyOPkdTVrXTG-8" value="0" style="shape=partialRectangle;html=1;whiteSpace=wrap;connectable=0;overflow=hidden;fillColor=#fff2cc;top=0;left=0;bottom=0;right=0;strokeColor=#d6b656;" vertex="1" parent="i4WKR2zMAyOPkdTVrXTG-6">
          <mxGeometry x="113" width="114" height="40" as="geometry" />
        </mxCell>
        <mxCell id="i4WKR2zMAyOPkdTVrXTG-9" value="8" style="shape=partialRectangle;html=1;whiteSpace=wrap;connectable=0;overflow=hidden;fillColor=#fff2cc;top=0;left=0;bottom=0;right=0;strokeColor=#d6b656;" vertex="1" parent="i4WKR2zMAyOPkdTVrXTG-6">
          <mxGeometry x="227" width="113" height="40" as="geometry" />
        </mxCell>
        <mxCell id="i4WKR2zMAyOPkdTVrXTG-10" value="" style="shape=partialRectangle;html=1;whiteSpace=wrap;collapsible=0;dropTarget=0;pointerEvents=0;fillColor=none;top=0;left=0;bottom=0;right=0;points=[[0,0.5],[1,0.5]];portConstraint=eastwest;" vertex="1" parent="i4WKR2zMAyOPkdTVrXTG-1">
          <mxGeometry y="80" width="340" height="40" as="geometry" />
        </mxCell>
        <mxCell id="i4WKR2zMAyOPkdTVrXTG-11" value="P2" style="shape=partialRectangle;html=1;whiteSpace=wrap;connectable=0;overflow=hidden;fillColor=#f8cecc;top=0;left=0;bottom=0;right=0;strokeColor=#b85450;" vertex="1" parent="i4WKR2zMAyOPkdTVrXTG-10">
          <mxGeometry width="113" height="40" as="geometry" />
        </mxCell>
        <mxCell id="i4WKR2zMAyOPkdTVrXTG-12" value="2" style="shape=partialRectangle;html=1;whiteSpace=wrap;connectable=0;overflow=hidden;fillColor=#f8cecc;top=0;left=0;bottom=0;right=0;strokeColor=#b85450;" vertex="1" parent="i4WKR2zMAyOPkdTVrXTG-10">
          <mxGeometry x="113" width="114" height="40" as="geometry" />
        </mxCell>
        <mxCell id="i4WKR2zMAyOPkdTVrXTG-13" value="4" style="shape=partialRectangle;html=1;whiteSpace=wrap;connectable=0;overflow=hidden;fillColor=#f8cecc;top=0;left=0;bottom=0;right=0;strokeColor=#b85450;" vertex="1" parent="i4WKR2zMAyOPkdTVrXTG-10">
          <mxGeometry x="227" width="113" height="40" as="geometry" />
        </mxCell>
        <mxCell id="i4WKR2zMAyOPkdTVrXTG-14" value="" style="shape=partialRectangle;html=1;whiteSpace=wrap;collapsible=0;dropTarget=0;pointerEvents=0;fillColor=none;top=0;left=0;bottom=0;right=0;points=[[0,0.5],[1,0.5]];portConstraint=eastwest;" vertex="1" parent="i4WKR2zMAyOPkdTVrXTG-1">
          <mxGeometry y="120" width="340" height="40" as="geometry" />
        </mxCell>
        <mxCell id="i4WKR2zMAyOPkdTVrXTG-15" value="P3" style="shape=partialRectangle;html=1;whiteSpace=wrap;connectable=0;overflow=hidden;fillColor=#e1d5e7;top=0;left=0;bottom=0;right=0;strokeColor=#9673a6;" vertex="1" parent="i4WKR2zMAyOPkdTVrXTG-14">
          <mxGeometry width="113" height="40" as="geometry" />
        </mxCell>
        <mxCell id="i4WKR2zMAyOPkdTVrXTG-16" value="3" style="shape=partialRectangle;html=1;whiteSpace=wrap;connectable=0;overflow=hidden;fillColor=#e1d5e7;top=0;left=0;bottom=0;right=0;strokeColor=#9673a6;" vertex="1" parent="i4WKR2zMAyOPkdTVrXTG-14">
          <mxGeometry x="113" width="114" height="40" as="geometry" />
        </mxCell>
        <mxCell id="i4WKR2zMAyOPkdTVrXTG-17" value="2" style="shape=partialRectangle;html=1;whiteSpace=wrap;connectable=0;overflow=hidden;fillColor=#e1d5e7;top=0;left=0;bottom=0;right=0;strokeColor=#9673a6;" vertex="1" parent="i4WKR2zMAyOPkdTVrXTG-14">
          <mxGeometry x="227" width="113" height="40" as="geometry" />
        </mxCell>
        <mxCell id="i4WKR2zMAyOPkdTVrXTG-18" value="" style="shape=partialRectangle;html=1;whiteSpace=wrap;collapsible=0;dropTarget=0;pointerEvents=0;fillColor=none;top=0;left=0;bottom=0;right=0;points=[[0,0.5],[1,0.5]];portConstraint=eastwest;" vertex="1" parent="i4WKR2zMAyOPkdTVrXTG-1">
          <mxGeometry y="160" width="340" height="40" as="geometry" />
        </mxCell>
        <mxCell id="i4WKR2zMAyOPkdTVrXTG-19" value="P4" style="shape=partialRectangle;html=1;whiteSpace=wrap;connectable=0;overflow=hidden;fillColor=#dae8fc;top=0;left=0;bottom=0;right=0;strokeColor=#6c8ebf;" vertex="1" parent="i4WKR2zMAyOPkdTVrXTG-18">
          <mxGeometry width="113" height="40" as="geometry" />
        </mxCell>
        <mxCell id="i4WKR2zMAyOPkdTVrXTG-20" value="9" style="shape=partialRectangle;html=1;whiteSpace=wrap;connectable=0;overflow=hidden;fillColor=#dae8fc;top=0;left=0;bottom=0;right=0;strokeColor=#6c8ebf;" vertex="1" parent="i4WKR2zMAyOPkdTVrXTG-18">
          <mxGeometry x="113" width="114" height="40" as="geometry" />
        </mxCell>
        <mxCell id="i4WKR2zMAyOPkdTVrXTG-21" value="1" style="shape=partialRectangle;html=1;whiteSpace=wrap;connectable=0;overflow=hidden;fillColor=#dae8fc;top=0;left=0;bottom=0;right=0;strokeColor=#6c8ebf;" vertex="1" parent="i4WKR2zMAyOPkdTVrXTG-18">
          <mxGeometry x="227" width="113" height="40" as="geometry" />
        </mxCell>
        <mxCell id="i4WKR2zMAyOPkdTVrXTG-22" value="" style="shape=table;html=1;whiteSpace=wrap;startSize=0;container=1;collapsible=0;childLayout=tableLayout;" vertex="1" parent="1">
          <mxGeometry x="190" y="480" width="470" height="120" as="geometry" />
        </mxCell>
        <mxCell id="i4WKR2zMAyOPkdTVrXTG-23" style="shape=partialRectangle;html=1;whiteSpace=wrap;collapsible=0;dropTarget=0;pointerEvents=0;fillColor=none;top=0;left=0;bottom=0;right=0;points=[[0,0.5],[1,0.5]];portConstraint=eastwest;" vertex="1" parent="i4WKR2zMAyOPkdTVrXTG-22">
          <mxGeometry width="470" height="40" as="geometry" />
        </mxCell>
        <mxCell id="i4WKR2zMAyOPkdTVrXTG-24" value="P1" style="shape=partialRectangle;html=1;whiteSpace=wrap;connectable=0;overflow=hidden;top=0;left=0;bottom=0;right=0;" vertex="1" parent="i4WKR2zMAyOPkdTVrXTG-23">
          <mxGeometry width="33" height="40" as="geometry" />
        </mxCell>
        <mxCell id="i4WKR2zMAyOPkdTVrXTG-25" style="shape=partialRectangle;html=1;whiteSpace=wrap;connectable=0;overflow=hidden;top=0;left=0;bottom=0;right=0;" vertex="1" parent="i4WKR2zMAyOPkdTVrXTG-23">
          <mxGeometry x="33" width="34" height="40" as="geometry" />
        </mxCell>
        <mxCell id="i4WKR2zMAyOPkdTVrXTG-26" value="P2" style="shape=partialRectangle;html=1;whiteSpace=wrap;connectable=0;overflow=hidden;top=0;left=0;bottom=0;right=0;" vertex="1" parent="i4WKR2zMAyOPkdTVrXTG-23">
          <mxGeometry x="67" width="34" height="40" as="geometry" />
        </mxCell>
        <mxCell id="i4WKR2zMAyOPkdTVrXTG-27" value="P3" style="shape=partialRectangle;html=1;whiteSpace=wrap;connectable=0;overflow=hidden;top=0;left=0;bottom=0;right=0;" vertex="1" parent="i4WKR2zMAyOPkdTVrXTG-23">
          <mxGeometry x="101" width="33" height="40" as="geometry" />
        </mxCell>
        <mxCell id="i4WKR2zMAyOPkdTVrXTG-28" style="shape=partialRectangle;html=1;whiteSpace=wrap;connectable=0;overflow=hidden;top=0;left=0;bottom=0;right=0;" vertex="1" parent="i4WKR2zMAyOPkdTVrXTG-23">
          <mxGeometry x="134" width="34" height="40" as="geometry" />
        </mxCell>
        <mxCell id="i4WKR2zMAyOPkdTVrXTG-29" value="" style="shape=partialRectangle;html=1;whiteSpace=wrap;connectable=0;overflow=hidden;top=0;left=0;bottom=0;right=0;" vertex="1" parent="i4WKR2zMAyOPkdTVrXTG-23">
          <mxGeometry x="168" width="34" height="40" as="geometry" />
        </mxCell>
        <mxCell id="i4WKR2zMAyOPkdTVrXTG-30" style="shape=partialRectangle;html=1;whiteSpace=wrap;connectable=0;overflow=hidden;top=0;left=0;bottom=0;right=0;" vertex="1" parent="i4WKR2zMAyOPkdTVrXTG-23">
          <mxGeometry x="202" width="33" height="40" as="geometry" />
        </mxCell>
        <mxCell id="i4WKR2zMAyOPkdTVrXTG-31" style="shape=partialRectangle;html=1;whiteSpace=wrap;connectable=0;overflow=hidden;top=0;left=0;bottom=0;right=0;" vertex="1" parent="i4WKR2zMAyOPkdTVrXTG-23">
          <mxGeometry x="235" width="33" height="40" as="geometry" />
        </mxCell>
        <mxCell id="i4WKR2zMAyOPkdTVrXTG-32" style="shape=partialRectangle;html=1;whiteSpace=wrap;connectable=0;overflow=hidden;top=0;left=0;bottom=0;right=0;" vertex="1" parent="i4WKR2zMAyOPkdTVrXTG-23">
          <mxGeometry x="268" width="34" height="40" as="geometry" />
        </mxCell>
        <mxCell id="i4WKR2zMAyOPkdTVrXTG-33" value="P4" style="shape=partialRectangle;html=1;whiteSpace=wrap;connectable=0;overflow=hidden;top=0;left=0;bottom=0;right=0;" vertex="1" parent="i4WKR2zMAyOPkdTVrXTG-23">
          <mxGeometry x="302" width="34" height="40" as="geometry" />
        </mxCell>
        <mxCell id="i4WKR2zMAyOPkdTVrXTG-34" style="shape=partialRectangle;html=1;whiteSpace=wrap;connectable=0;overflow=hidden;top=0;left=0;bottom=0;right=0;" vertex="1" parent="i4WKR2zMAyOPkdTVrXTG-23">
          <mxGeometry x="336" width="33" height="40" as="geometry" />
        </mxCell>
        <mxCell id="i4WKR2zMAyOPkdTVrXTG-35" style="shape=partialRectangle;html=1;whiteSpace=wrap;connectable=0;overflow=hidden;top=0;left=0;bottom=0;right=0;" vertex="1" parent="i4WKR2zMAyOPkdTVrXTG-23">
          <mxGeometry x="369" width="34" height="40" as="geometry" />
        </mxCell>
        <mxCell id="i4WKR2zMAyOPkdTVrXTG-36" style="shape=partialRectangle;html=1;whiteSpace=wrap;connectable=0;overflow=hidden;top=0;left=0;bottom=0;right=0;" vertex="1" parent="i4WKR2zMAyOPkdTVrXTG-23">
          <mxGeometry x="403" width="34" height="40" as="geometry" />
        </mxCell>
        <mxCell id="i4WKR2zMAyOPkdTVrXTG-37" style="shape=partialRectangle;html=1;whiteSpace=wrap;connectable=0;overflow=hidden;top=0;left=0;bottom=0;right=0;" vertex="1" parent="i4WKR2zMAyOPkdTVrXTG-23">
          <mxGeometry x="437" width="33" height="40" as="geometry" />
        </mxCell>
        <mxCell id="i4WKR2zMAyOPkdTVrXTG-38" value="" style="shape=partialRectangle;html=1;whiteSpace=wrap;collapsible=0;dropTarget=0;pointerEvents=0;fillColor=none;top=0;left=0;bottom=0;right=0;points=[[0,0.5],[1,0.5]];portConstraint=eastwest;" vertex="1" parent="i4WKR2zMAyOPkdTVrXTG-22">
          <mxGeometry y="40" width="470" height="40" as="geometry" />
        </mxCell>
        <mxCell id="i4WKR2zMAyOPkdTVrXTG-39" value="" style="shape=partialRectangle;html=1;whiteSpace=wrap;connectable=0;overflow=hidden;fillColor=#fff2cc;top=0;left=0;bottom=0;right=0;strokeColor=#d6b656;" vertex="1" parent="i4WKR2zMAyOPkdTVrXTG-38">
          <mxGeometry width="33" height="40" as="geometry" />
        </mxCell>
        <mxCell id="i4WKR2zMAyOPkdTVrXTG-40" value="" style="shape=partialRectangle;html=1;whiteSpace=wrap;connectable=0;overflow=hidden;fillColor=#fff2cc;top=0;left=0;bottom=0;right=0;strokeColor=#d6b656;" vertex="1" parent="i4WKR2zMAyOPkdTVrXTG-38">
          <mxGeometry x="33" width="34" height="40" as="geometry" />
        </mxCell>
        <mxCell id="i4WKR2zMAyOPkdTVrXTG-41" value="" style="shape=partialRectangle;html=1;whiteSpace=wrap;connectable=0;overflow=hidden;fillColor=#f8cecc;top=0;left=0;bottom=0;right=0;strokeColor=#b85450;" vertex="1" parent="i4WKR2zMAyOPkdTVrXTG-38">
          <mxGeometry x="67" width="34" height="40" as="geometry" />
        </mxCell>
        <mxCell id="i4WKR2zMAyOPkdTVrXTG-42" value="" style="shape=partialRectangle;html=1;whiteSpace=wrap;connectable=0;overflow=hidden;fillColor=#f8cecc;top=0;left=0;bottom=0;right=0;strokeColor=#b85450;" vertex="1" parent="i4WKR2zMAyOPkdTVrXTG-38">
          <mxGeometry x="101" width="33" height="40" as="geometry" />
        </mxCell>
        <mxCell id="i4WKR2zMAyOPkdTVrXTG-43" value="" style="shape=partialRectangle;html=1;whiteSpace=wrap;connectable=0;overflow=hidden;fillColor=#f8cecc;top=0;left=0;bottom=0;right=0;strokeColor=#b85450;" vertex="1" parent="i4WKR2zMAyOPkdTVrXTG-38">
          <mxGeometry x="134" width="34" height="40" as="geometry" />
        </mxCell>
        <mxCell id="i4WKR2zMAyOPkdTVrXTG-44" value="" style="shape=partialRectangle;html=1;whiteSpace=wrap;connectable=0;overflow=hidden;fillColor=#f8cecc;top=0;left=0;bottom=0;right=0;strokeColor=#b85450;" vertex="1" parent="i4WKR2zMAyOPkdTVrXTG-38">
          <mxGeometry x="168" width="34" height="40" as="geometry" />
        </mxCell>
        <mxCell id="i4WKR2zMAyOPkdTVrXTG-45" value="" style="shape=partialRectangle;html=1;whiteSpace=wrap;connectable=0;overflow=hidden;fillColor=#fff2cc;top=0;left=0;bottom=0;right=0;strokeColor=#d6b656;" vertex="1" parent="i4WKR2zMAyOPkdTVrXTG-38">
          <mxGeometry x="202" width="33" height="40" as="geometry" />
        </mxCell>
        <mxCell id="i4WKR2zMAyOPkdTVrXTG-46" value="" style="shape=partialRectangle;html=1;whiteSpace=wrap;connectable=0;overflow=hidden;fillColor=#e1d5e7;top=0;left=0;bottom=0;right=0;strokeColor=#9673a6;" vertex="1" parent="i4WKR2zMAyOPkdTVrXTG-38">
          <mxGeometry x="235" width="33" height="40" as="geometry" />
        </mxCell>
        <mxCell id="i4WKR2zMAyOPkdTVrXTG-47" value="" style="shape=partialRectangle;html=1;whiteSpace=wrap;connectable=0;overflow=hidden;fillColor=#fff2cc;top=0;left=0;bottom=0;right=0;strokeColor=#d6b656;" vertex="1" parent="i4WKR2zMAyOPkdTVrXTG-38">
          <mxGeometry x="268" width="34" height="40" as="geometry" />
        </mxCell>
        <mxCell id="i4WKR2zMAyOPkdTVrXTG-48" value="" style="shape=partialRectangle;html=1;whiteSpace=wrap;connectable=0;overflow=hidden;fillColor=#e1d5e7;top=0;left=0;bottom=0;right=0;strokeColor=#9673a6;" vertex="1" parent="i4WKR2zMAyOPkdTVrXTG-38">
          <mxGeometry x="302" width="34" height="40" as="geometry" />
        </mxCell>
        <mxCell id="i4WKR2zMAyOPkdTVrXTG-49" value="" style="shape=partialRectangle;html=1;whiteSpace=wrap;connectable=0;overflow=hidden;fillColor=#fff2cc;top=0;left=0;bottom=0;right=0;strokeColor=#d6b656;" vertex="1" parent="i4WKR2zMAyOPkdTVrXTG-38">
          <mxGeometry x="336" width="33" height="40" as="geometry" />
        </mxCell>
        <mxCell id="i4WKR2zMAyOPkdTVrXTG-50" value="" style="shape=partialRectangle;html=1;whiteSpace=wrap;connectable=0;overflow=hidden;fillColor=#fff2cc;top=0;left=0;bottom=0;right=0;strokeColor=#d6b656;" vertex="1" parent="i4WKR2zMAyOPkdTVrXTG-38">
          <mxGeometry x="369" width="34" height="40" as="geometry" />
        </mxCell>
        <mxCell id="i4WKR2zMAyOPkdTVrXTG-51" value="" style="shape=partialRectangle;html=1;whiteSpace=wrap;connectable=0;overflow=hidden;fillColor=#fff2cc;top=0;left=0;bottom=0;right=0;strokeColor=#d6b656;" vertex="1" parent="i4WKR2zMAyOPkdTVrXTG-38">
          <mxGeometry x="403" width="34" height="40" as="geometry" />
        </mxCell>
        <mxCell id="i4WKR2zMAyOPkdTVrXTG-52" value="" style="shape=partialRectangle;html=1;whiteSpace=wrap;connectable=0;overflow=hidden;fillColor=#fff2cc;top=0;left=0;bottom=0;right=0;strokeColor=#d6b656;" vertex="1" parent="i4WKR2zMAyOPkdTVrXTG-38">
          <mxGeometry x="437" width="33" height="40" as="geometry" />
        </mxCell>
        <mxCell id="i4WKR2zMAyOPkdTVrXTG-53" value="" style="shape=partialRectangle;html=1;whiteSpace=wrap;collapsible=0;dropTarget=0;pointerEvents=0;fillColor=none;top=0;left=0;bottom=0;right=0;points=[[0,0.5],[1,0.5]];portConstraint=eastwest;" vertex="1" parent="i4WKR2zMAyOPkdTVrXTG-22">
          <mxGeometry y="80" width="470" height="40" as="geometry" />
        </mxCell>
        <mxCell id="i4WKR2zMAyOPkdTVrXTG-54" value="P1" style="shape=partialRectangle;html=1;whiteSpace=wrap;connectable=0;overflow=hidden;fillColor=none;top=0;left=0;bottom=0;right=0;" vertex="1" parent="i4WKR2zMAyOPkdTVrXTG-53">
          <mxGeometry width="33" height="40" as="geometry" />
        </mxCell>
        <mxCell id="i4WKR2zMAyOPkdTVrXTG-55" value="" style="shape=partialRectangle;html=1;whiteSpace=wrap;connectable=0;overflow=hidden;fillColor=none;top=0;left=0;bottom=0;right=0;" vertex="1" parent="i4WKR2zMAyOPkdTVrXTG-53">
          <mxGeometry x="33" width="34" height="40" as="geometry" />
        </mxCell>
        <mxCell id="i4WKR2zMAyOPkdTVrXTG-56" value="P2" style="shape=partialRectangle;html=1;whiteSpace=wrap;connectable=0;overflow=hidden;fillColor=none;top=0;left=0;bottom=0;right=0;" vertex="1" parent="i4WKR2zMAyOPkdTVrXTG-53">
          <mxGeometry x="67" width="34" height="40" as="geometry" />
        </mxCell>
        <mxCell id="i4WKR2zMAyOPkdTVrXTG-57" value="" style="shape=partialRectangle;html=1;whiteSpace=wrap;connectable=0;overflow=hidden;fillColor=none;top=0;left=0;bottom=0;right=0;" vertex="1" parent="i4WKR2zMAyOPkdTVrXTG-53">
          <mxGeometry x="101" width="33" height="40" as="geometry" />
        </mxCell>
        <mxCell id="i4WKR2zMAyOPkdTVrXTG-58" value="" style="shape=partialRectangle;html=1;whiteSpace=wrap;connectable=0;overflow=hidden;fillColor=none;top=0;left=0;bottom=0;right=0;" vertex="1" parent="i4WKR2zMAyOPkdTVrXTG-53">
          <mxGeometry x="134" width="34" height="40" as="geometry" />
        </mxCell>
        <mxCell id="i4WKR2zMAyOPkdTVrXTG-59" value="" style="shape=partialRectangle;html=1;whiteSpace=wrap;connectable=0;overflow=hidden;fillColor=none;top=0;left=0;bottom=0;right=0;" vertex="1" parent="i4WKR2zMAyOPkdTVrXTG-53">
          <mxGeometry x="168" width="34" height="40" as="geometry" />
        </mxCell>
        <mxCell id="i4WKR2zMAyOPkdTVrXTG-60" value="P1" style="shape=partialRectangle;html=1;whiteSpace=wrap;connectable=0;overflow=hidden;fillColor=none;top=0;left=0;bottom=0;right=0;" vertex="1" parent="i4WKR2zMAyOPkdTVrXTG-53">
          <mxGeometry x="202" width="33" height="40" as="geometry" />
        </mxCell>
        <mxCell id="i4WKR2zMAyOPkdTVrXTG-61" value="P3" style="shape=partialRectangle;html=1;whiteSpace=wrap;connectable=0;overflow=hidden;fillColor=none;top=0;left=0;bottom=0;right=0;" vertex="1" parent="i4WKR2zMAyOPkdTVrXTG-53">
          <mxGeometry x="235" width="33" height="40" as="geometry" />
        </mxCell>
        <mxCell id="i4WKR2zMAyOPkdTVrXTG-62" value="P1" style="shape=partialRectangle;html=1;whiteSpace=wrap;connectable=0;overflow=hidden;fillColor=none;top=0;left=0;bottom=0;right=0;" vertex="1" parent="i4WKR2zMAyOPkdTVrXTG-53">
          <mxGeometry x="268" width="34" height="40" as="geometry" />
        </mxCell>
        <mxCell id="i4WKR2zMAyOPkdTVrXTG-63" value="P3" style="shape=partialRectangle;html=1;whiteSpace=wrap;connectable=0;overflow=hidden;fillColor=none;top=0;left=0;bottom=0;right=0;" vertex="1" parent="i4WKR2zMAyOPkdTVrXTG-53">
          <mxGeometry x="302" width="34" height="40" as="geometry" />
        </mxCell>
        <mxCell id="i4WKR2zMAyOPkdTVrXTG-64" value="P1" style="shape=partialRectangle;html=1;whiteSpace=wrap;connectable=0;overflow=hidden;fillColor=none;top=0;left=0;bottom=0;right=0;" vertex="1" parent="i4WKR2zMAyOPkdTVrXTG-53">
          <mxGeometry x="336" width="33" height="40" as="geometry" />
        </mxCell>
        <mxCell id="i4WKR2zMAyOPkdTVrXTG-65" value="" style="shape=partialRectangle;html=1;whiteSpace=wrap;connectable=0;overflow=hidden;fillColor=none;top=0;left=0;bottom=0;right=0;" vertex="1" parent="i4WKR2zMAyOPkdTVrXTG-53">
          <mxGeometry x="369" width="34" height="40" as="geometry" />
        </mxCell>
        <mxCell id="i4WKR2zMAyOPkdTVrXTG-66" value="" style="shape=partialRectangle;html=1;whiteSpace=wrap;connectable=0;overflow=hidden;fillColor=none;top=0;left=0;bottom=0;right=0;" vertex="1" parent="i4WKR2zMAyOPkdTVrXTG-53">
          <mxGeometry x="403" width="34" height="40" as="geometry" />
        </mxCell>
        <mxCell id="i4WKR2zMAyOPkdTVrXTG-67" value="" style="shape=partialRectangle;html=1;whiteSpace=wrap;connectable=0;overflow=hidden;fillColor=none;top=0;left=0;bottom=0;right=0;" vertex="1" parent="i4WKR2zMAyOPkdTVrXTG-53">
          <mxGeometry x="437" width="33" height="40" as="geometry" />
        </mxCell>
        <mxCell id="i4WKR2zMAyOPkdTVrXTG-68" value="Schedule" style="text;html=1;align=center;verticalAlign=middle;resizable=0;points=[];autosize=1;" vertex="1" parent="1">
          <mxGeometry x="105" y="575" width="70" height="20" as="geometry" />
        </mxCell>
        <mxCell id="i4WKR2zMAyOPkdTVrXTG-69" style="rounded=0;orthogonalLoop=1;jettySize=auto;html=1;" edge="1" parent="1" source="i4WKR2zMAyOPkdTVrXTG-70">
          <mxGeometry relative="1" as="geometry">
            <mxPoint x="640" y="260" as="targetPoint" />
          </mxGeometry>
        </mxCell>
        <mxCell id="i4WKR2zMAyOPkdTVrXTG-70" value="" style="shape=curlyBracket;whiteSpace=wrap;html=1;rounded=1;direction=south;" vertex="1" parent="1">
          <mxGeometry x="523" y="450" width="37" height="20" as="geometry" />
        </mxCell>
        <mxCell id="i4WKR2zMAyOPkdTVrXTG-71" value="&lt;font style=&quot;font-size: 16px&quot;&gt;Time Slice = 1&lt;/font&gt;" style="text;html=1;align=center;verticalAlign=middle;resizable=0;points=[];autosize=1;" vertex="1" parent="1">
          <mxGeometry x="580" y="230" width="120" height="20" as="geometry" />
        </mxCell>
        <mxCell id="i4WKR2zMAyOPkdTVrXTG-72" value="Arrival" style="text;html=1;align=center;verticalAlign=middle;resizable=0;points=[];autosize=1;" vertex="1" parent="1">
          <mxGeometry x="105" y="480" width="50" height="20" as="geometry" />
        </mxCell>
        <mxCell id="i4WKR2zMAyOPkdTVrXTG-73" value="time slice" style="text;html=1;align=center;verticalAlign=middle;resizable=0;points=[];autosize=1;" vertex="1" parent="1">
          <mxGeometry x="105" y="530" width="70" height="20" as="geometry" />
        </mxCell>
      </root>
    </mxGraphModel>
  </diagram>
</mxfile>
